<svg xmlns="http://www.w3.org/2000/svg" width="175" height="69" fill="none"><path fill="#1E1E1E" d="M0 0h175v69H0z"/><g clip-path="url(#a)"><path fill="#fff" d="M-255-9h1920v2711H-255z"/><path fill="#fff" d="M-255-9h1920v135H-255z"/><g clip-path="url(#b)"><path stroke="#F2712F" stroke-width="1.53" d="M33.84 55.24a20.05 20.05 0 1 0 0-40.1 20.05 20.05 0 0 0 0 40.1Z"/><path stroke="#F2712F" stroke-width="1.53" d="M22.5 52.18c-3.01 1.51-5.99 1.98-7.3.85-3.32-2.81 1.45-13.83 10.64-24.57 9.19-10.74 19.32-17.17 22.63-14.35 1.38 1.18 1.36 3.78.2 7.2"/><path stroke="#F2712F" stroke-width="1.53" d="M44.98 52.18c3 1.51 6.21 1.98 7.54.85 3.3-2.81-1.46-13.83-10.65-24.57C32.7 17.72 22.56 11.3 19.25 14.11c-1.38 1.18-1.36 3.78-.2 7.2"/><path stroke="#F2712F" stroke-width="2.24" d="M53.48 32c4.43 1.14 5.91 2.45 5.91 4.37 0 3.94-11.48 7.06-25.63 7.06-14.16 0-25.59-2.6-25.59-6.82 0-2.2 2.65-3.68 6.01-4.86"/><path stroke="#F2712F" stroke-width="2.24" d="M33.77 67.56c18.02 0 32.64-14.88 32.64-33.22 0-18.35-14.62-33.22-32.64-33.22C15.74 1.12 1.12 16 1.12 34.34c0 18.34 14.62 33.22 32.65 33.22Z"/><path fill="#F56E1E" d="m23.28 48.21 10.62-22.4 10.63 22.4h-4.05L33.9 34.32l-6.56 13.9h-4.06Z"/><path stroke="#F2712F" stroke-width="1.5" d="M33.9 25.8 23.28 48.21h4.06l6.56-13.89 6.58 13.9h4.05L33.9 25.8Z"/><path fill="#F56E1E" d="M148.8 25.18a12.72 12.72 0 1 0 25.42 0 12.72 12.72 0 1 0-25.42 0Zm18.46 0a5.77 5.77 0 1 1-11.52 0 5.77 5.77 0 1 1 11.52 0Zm-33.35 12.5h6.96V19.42h6.75v-6.75h-20.45v6.75h6.75v18.27Zm-21.55-5.36v-5.17h3.77a2.59 2.59 0 1 1 0 5.16h-3.77Zm0-9.93v-4.37h3.17a2.19 2.19 0 1 1 0 4.36h-3.17v.01Zm-6.95 15.3h12.31c5.2 0 8.34-3.18 8.34-7.16a6.26 6.26 0 0 0-2.18-4.84 8.5 8.5 0 0 0-2.18-1.31c.61-.3 1.18-.71 1.67-1.2a5.48 5.48 0 0 0 1.7-3.97c0-3.61-2.97-6.55-8.13-6.55h-11.52v25.03h-.01Zm-26.86 0h7.35l1.38-4.58h7.55l1.39 4.57h7.35l-8.54-25.02h-7.95l-8.53 25.02Zm10.33-10.13 2.18-7.15 2.18 7.15h-4.36ZM163.34 56.28h3.2l.6-1.98h3.28l.6 1.98h3.2l-3.7-10.86h-3.45l-3.73 10.86Zm4.48-4.39.95-3.1.95 3.1h-1.9Zm-14.32 4.4h3.02v-4.74l3.01 4.73h3.45l-3.8-5.52 3.45-5.34h-3.36l-2.76 4.6v-4.6h-3.01v10.86Zm-11.63 0h2.67l4.05-5.96v5.95h3.03V45.43h-2.68l-4.05 5.95v-5.95h-3.01v10.85Zm-6.76-5.86v-2.25h1.3a1.12 1.12 0 1 1 0 2.24h-1.3v.01Zm-3.02 5.86h3.02v-3.1h1.55a3.88 3.88 0 1 0 0-7.77h-4.57v10.86Zm-7.01 0h3.02v-7.94h2.93v-2.93h-8.89v2.93h2.94v7.93Zm-12.77 0h3.02v-4.74l3.02 4.73h3.44L118 50.76l3.44-5.34h-3.36l-2.75 4.6v-4.6h-3.01v10.86Zm-9.87 0h8.28V53.6h-5.27v-1.55h4.66v-2.6h-4.66V48.1h5.09v-2.67h-8.1v10.87Zm-12.22 0 .37.08c.27.06.55.08.83.08 1.9 0 3.17-1.29 3.36-3.44l.34-4.66h2.41v7.94h3.02V45.43h-8.1l-.52 6.8c-.08.92-.53 1.38-1.38 1.38h-.34v2.67Zm-11.2-3.63a5.59 5.59 0 0 0 5.18 3.8 5.6 5.6 0 1 0-5.17-7.34l3.1.27c.13-.24.29-.45.48-.64a2.2 2.2 0 0 1 1.58-.66 2.41 2.41 0 0 1 2.33 1.54h-3.33v2.41h3.33a2.4 2.4 0 0 1-2.33 1.56 2.16 2.16 0 0 1-1.59-.6c-.2-.18-.36-.38-.48-.61l-3.1.27Z"/></g></g><defs><clipPath id="a"><path fill="#fff" d="M-255-9h1920v2711H-255z"/></clipPath><clipPath id="b"><path fill="#fff" d="M0 0h174.22v68.68H0z"/></clipPath></defs></svg>